# Blender 3.4.1
# www.blender.org
mtllib arrow.mtl
o Arrow05
v 0.058289 0.053936 0.017826
v 0.112336 -0.000111 0.017826
v 0.112336 -0.000111 -0.017826
v 0.058289 0.053936 -0.017826
v -0.171488 -0.016926 0.017826
v -0.171488 -0.016926 -0.017826
v 0.047007 -0.016926 -0.017826
v 0.047007 -0.016926 0.017826
v 0.112336 -0.000111 -0.017826
v 0.058289 -0.054157 -0.017826
v 0.010025 -0.054157 -0.017826
v 0.047007 -0.016926 -0.017826
v 0.112336 -0.000111 0.017826
v 0.058289 -0.054157 0.017826
v 0.058289 -0.054157 -0.017826
v 0.112336 -0.000111 -0.017826
v -0.171488 0.017203 -0.017826
v -0.171488 -0.016926 -0.017826
v -0.171488 -0.016926 0.017826
v -0.171488 0.017203 0.017826
v -0.171488 -0.016926 0.017826
v 0.047007 -0.016926 0.017826
v 0.047007 0.017203 0.017826
v -0.171488 0.017203 0.017826
v 0.047007 0.017203 0.017826
v 0.047007 0.017203 -0.017826
v -0.171488 0.017203 -0.017826
v -0.171488 0.017203 0.017826
v 0.010025 0.053936 -0.017826
v 0.047007 0.017203 -0.017826
v 0.047007 0.017203 0.017826
v 0.010025 0.053936 0.017826
v 0.010025 -0.054157 0.017826
v 0.010025 -0.054157 -0.017826
v 0.058289 -0.054157 -0.017826
v 0.058289 -0.054157 0.017826
v 0.047007 -0.016926 -0.017826
v 0.010025 -0.054157 -0.017826
v 0.010025 -0.054157 0.017826
v 0.047007 -0.016926 0.017826
v 0.058289 0.053936 0.017826
v 0.058289 0.053936 -0.017826
v 0.010025 0.053936 -0.017826
v 0.010025 0.053936 0.017826
v 0.010025 -0.054157 0.017826
v 0.058289 -0.054157 0.017826
v 0.112336 -0.000111 0.017826
v 0.047007 -0.016926 0.017826
v 0.112336 -0.000111 0.017826
v 0.058289 0.053936 0.017826
v 0.010025 0.053936 0.017826
v 0.047007 0.017203 -0.017826
v 0.047007 -0.016926 -0.017826
v -0.171488 -0.016926 -0.017826
v -0.171488 0.017203 -0.017826
v 0.058289 0.053936 -0.017826
v 0.112336 -0.000111 -0.017826
v 0.010025 0.053936 -0.017826
vn 0.7071 0.7071 -0.0000
vn -0.0000 -1.0000 -0.0000
vn -0.0000 -0.0000 -1.0000
vn 0.7071 -0.7071 -0.0000
vn -1.0000 -0.0000 -0.0000
vn -0.0000 -0.0000 1.0000
vn -0.0000 1.0000 -0.0000
vn -0.7047 -0.7095 -0.0000
vn -0.7095 0.7047 -0.0000
vt 0.625000 0.349055
vt 0.625000 0.301712
vt 0.625000 0.301712
vt 0.625000 0.349055
vt 0.375000 0.375000
vt 0.375000 0.375000
vt 0.375000 0.250000
vt 0.375000 0.250000
vt 0.625000 0.301712
vt 0.625000 0.349055
vt 0.375000 0.370194
vt 0.375000 0.250000
vt 0.625000 0.301712
vt 0.625000 0.349055
vt 0.625000 0.349055
vt 0.625000 0.301712
vt 0.625000 0.375000
vt 0.375000 0.375000
vt 0.375000 0.375000
vt 0.625000 0.375000
vt 0.375000 0.375000
vt 0.375000 0.250000
vt 0.375000 0.338018
vt 0.625000 0.375000
vt 0.375000 0.338018
vt 0.375000 0.338018
vt 0.625000 0.375000
vt 0.625000 0.375000
vt 0.375000 0.370194
vt 0.375000 0.338018
vt 0.375000 0.338018
vt 0.375000 0.370194
vt 0.375000 0.370194
vt 0.375000 0.370194
vt 0.625000 0.349055
vt 0.625000 0.349055
vt 0.375000 0.250000
vt 0.375000 0.370194
vt 0.375000 0.370194
vt 0.375000 0.250000
vt 0.625000 0.349055
vt 0.625000 0.349055
vt 0.375000 0.370194
vt 0.375000 0.370194
vt 0.375000 0.370194
vt 0.625000 0.349055
vt 0.625000 0.301712
vt 0.375000 0.250000
vt 0.625000 0.301712
vt 0.625000 0.349055
vt 0.375000 0.370194
vt 0.375000 0.338018
vt 0.375000 0.250000
vt 0.375000 0.375000
vt 0.625000 0.375000
vt 0.625000 0.349055
vt 0.625000 0.301712
vt 0.375000 0.370194
s 1
usemtl Arrows
f 1/1/1 2/2/1 3/3/1
f 1/1/1 3/3/1 4/4/1
s 0
f 5/5/2 6/6/2 7/7/2
f 5/5/2 7/7/2 8/8/2
f 9/9/3 10/10/3 11/11/3
s 1
f 9/9/3 11/11/3 12/12/3
f 13/13/4 14/14/4 15/15/4
f 13/13/4 15/15/4 16/16/4
s 0
f 17/17/5 18/18/5 19/19/5
f 17/17/5 19/19/5 20/20/5
s 1
f 21/21/6 22/22/6 23/23/6
s 0
f 24/24/6 21/21/6 23/23/6
f 25/25/7 26/26/7 27/27/7
f 25/25/7 27/27/7 28/28/7
s 1
f 29/29/8 30/30/8 31/31/8
f 29/29/8 31/31/8 32/32/8
s 0
f 33/33/2 34/34/2 35/35/2
f 33/33/2 35/35/2 36/36/2
s 1
f 37/37/9 38/38/9 39/39/9
f 37/37/9 39/39/9 40/40/9
s 0
f 41/41/7 42/42/7 43/43/7
f 41/41/7 43/43/7 44/44/7
f 45/45/6 46/46/6 47/47/6
s 1
f 48/48/6 45/45/6 47/47/6
f 49/49/6 23/23/6 22/22/6
s 0
f 23/23/6 49/49/6 50/50/6
f 51/51/6 23/23/6 50/50/6
s 1
f 52/52/3 53/53/3 54/54/3
s 0
f 52/52/3 54/54/3 55/55/3
f 56/56/3 57/57/3 52/52/3
f 56/56/3 52/52/3 58/58/3
s 1
f 57/57/3 53/53/3 52/52/3
