{
  "accessors": [
    {
      "bufferView": 2,
      "componentType": 5126,
      "count": 2439,
      "max": [
        0.3028008043766022,
        1.0759496688842773,
        0.6521610617637634
      ],
      "min": [
        -0.2931364178657532,
        -1.071484088897705,
        -0.777268648147583
      ],
      "type": "VEC3"
    },
    {
      "bufferView": 2,
      "byteOffset": 29268,
      "componentType": 5126,
      "count": 2439,
      "max": [
        1.0,
        1.0,
        1.0
      ],
      "min": [
        -1.0,
        -1.0,
        -1.0
      ],
      "type": "VEC3"
    },
    {
      "bufferView": 1,
      "componentType": 5126,
      "count": 2439,
      "max": [
        1.0,
        1.0
      ],
      "min": [
        0.0,
        0.0
      ],
      "type": "VEC2"
    },
    {
      "bufferView": 0,
      "componentType": 5125,
      "count": 5322,
      "type": "SCALAR"
    },
    {
      "bufferView": 2,
      "byteOffset": 58536,
      "componentType": 5126,
      "count": 4166,
      "max": [
        0.3184516429901123,
        1.0759496688842773,
        0.6521610617637634
      ],
      "min": [
        -0.2869774103164673,
        -1.071484088897705,
        -0.761451780796051
      ],
      "type": "VEC3"
    },
    {
      "bufferView": 2,
      "byteOffset": 108528,
      "componentType": 5126,
      "count": 4166,
      "max": [
        1.0,
        1.0,
        1.0
      ],
      "min": [
        -1.0,
        -1.0,
        -1.0
      ],
      "type": "VEC3"
    },
    {
      "bufferView": 3,
      "componentType": 5126,
      "count": 4166,
      "max": [
        0.9998208284378052,
        1.0,
        1.0,
        1.0
      ],
      "min": [
        -0.9999992847442627,
        -0.9999868869781494,
        -1.0,
        1.0
      ],
      "type": "VEC4"
    },
    {
      "bufferView": 1,
      "byteOffset": 19512,
      "componentType": 5126,
      "count": 4166,
      "max": [
        1.0,
        1.0
      ],
      "min": [
        0.0,
        0.0
      ],
      "type": "VEC2"
    },
    {
      "bufferView": 0,
      "byteOffset": 21288,
      "componentType": 5125,
      "count": 10353,
      "type": "SCALAR"
    },
    {
      "bufferView": 2,
      "byteOffset": 158520,
      "componentType": 5126,
      "count": 643,
      "max": [
        -0.14061057567596436,
        1.041815996170044,
        0.5223652124404907
      ],
      "min": [
        -0.2931364178657532,
        -1.0373504161834717,
        -0.7607049942016602
      ],
      "type": "VEC3"
    },
    {
      "bufferView": 2,
      "byteOffset": 166236,
      "componentType": 5126,
      "count": 643,
      "max": [
        0.8419690728187561,
        0.9830262064933777,
        0.9905313849449158
      ],
      "min": [
        -0.9409232139587402,
        -0.9830264449119568,
        -0.9905310869216919
      ],
      "type": "VEC3"
    },
    {
      "bufferView": 1,
      "byteOffset": 52840,
      "componentType": 5126,
      "count": 643,
      "max": [
        1.0,
        1.0
      ],
      "min": [
        0.0,
        0.0
      ],
      "type": "VEC2"
    },
    {
      "bufferView": 0,
      "byteOffset": 62700,
      "componentType": 5125,
      "count": 2160,
      "type": "SCALAR"
    },
    {
      "bufferView": 2,
      "byteOffset": 173952,
      "componentType": 5126,
      "count": 1044,
      "max": [
        0.3028008043766022,
        1.0693838596343994,
        0.6446787714958191
      ],
      "min": [
        -0.16573281586170197,
        -1.0649182796478271,
        -0.6680566072463989
      ],
      "type": "VEC3"
    },
    {
      "bufferView": 2,
      "byteOffset": 186480,
      "componentType": 5126,
      "count": 1044,
      "max": [
        0.7394780516624451,
        1.0,
        1.0
      ],
      "min": [
        -1.0,
        -1.0,
        -1.0
      ],
      "type": "VEC3"
    },
    {
      "bufferView": 1,
      "byteOffset": 57984,
      "componentType": 5126,
      "count": 1044,
      "max": [
        0.9999999403953552,
        1.0
      ],
      "min": [
        0.0,
        0.0
      ],
      "type": "VEC2"
    },
    {
      "bufferView": 0,
      "byteOffset": 71340,
      "componentType": 5125,
      "count": 2412,
      "type": "SCALAR"
    },
    {
      "bufferView": 2,
      "byteOffset": 199008,
      "componentType": 5126,
      "count": 52,
      "max": [
        0.10688245296478271,
        0.5981958508491516,
        0.041224732995033264
      ],
      "min": [
        0.10688240081071854,
        -0.6016873121261597,
        -0.2770840525627136
      ],
      "type": "VEC3"
    },
    {
      "bufferView": 2,
      "byteOffset": 199632,
      "componentType": 5126,
      "count": 52,
      "max": [
        -1.0,
        3.968226280903764e-08,
        0.0
      ],
      "min": [
        -1.0,
        -3.968228856621181e-09,
        -3.667025794129586e-07
      ],
      "type": "VEC3"
    },
    {
      "bufferView": 1,
      "byteOffset": 66336,
      "componentType": 5126,
      "count": 52,
      "max": [
        1.0,
        1.0
      ],
      "min": [
        0.0,
        0.0
      ],
      "type": "VEC2"
    },
    {
      "bufferView": 0,
      "byteOffset": 80988,
      "componentType": 5125,
      "count": 132,
      "type": "SCALAR"
    }
  ],
  "asset": {
    "extras": {
      "author": "Grzybek (https://sketchfab.com/Kapuriada)",
      "license": "CC-BY-4.0 (http://creativecommons.org/licenses/by/4.0/)",
      "source": "https://sketchfab.com/3d-models/futuristic-ion-thruster-prototype-b2c23bbb19de4efbb478f3d515584f68",
      "title": "Futuristic Ion Thruster Prototype"
    },
    "generator": "Sketchfab-12.68.0",
    "version": "2.0"
  },
  "bufferViews": [
    {
      "buffer": 0,
      "byteLength": 81516,
      "name": "floatBufferViews",
      "target": 34963
    },
    {
      "buffer": 0,
      "byteLength": 66752,
      "byteOffset": 81516,
      "byteStride": 8,
      "name": "floatBufferViews",
      "target": 34962
    },
    {
      "buffer": 0,
      "byteLength": 200256,
      "byteOffset": 148268,
      "byteStride": 12,
      "name": "floatBufferViews",
      "target": 34962
    },
    {
      "buffer": 0,
      "byteLength": 66656,
      "byteOffset": 348524,
      "byteStride": 16,
      "name": "floatBufferViews",
      "target": 34962
    }
  ],
  "buffers": [
    {
      "byteLength": 415180,
      "uri": "scene.bin"
    }
  ],
  "images": [
    {
      "uri": "textures/Details_2_baseColor.jpeg"
    },
    {
      "uri": "textures/Details_2_metallicRoughness.png"
    },
    {
      "uri": "textures/Body_baseColor.jpeg"
    },
    {
      "uri": "textures/Body_metallicRoughness.png"
    },
    {
      "uri": "textures/Body_normal.png"
    },
    {
      "uri": "textures/Thruster_baseColor.jpeg"
    },
    {
      "uri": "textures/Thruster_metallicRoughness.png"
    },
    {
      "uri": "textures/Details_baseColor.jpeg"
    },
    {
      "uri": "textures/Details_metallicRoughness.png"
    },
    {
      "uri": "textures/Emossion_baseColor.jpeg"
    },
    {
      "uri": "textures/Emossion_emissive.jpeg"
    }
  ],
  "materials": [
    {
      "doubleSided": true,
      "name": "Details_2",
      "pbrMetallicRoughness": {
        "baseColorTexture": {
          "index": 0
        },
        "metallicRoughnessTexture": {
          "index": 1
        }
      }
    },
    {
      "doubleSided": true,
      "name": "Body",
      "normalTexture": {
        "index": 4
      },
      "pbrMetallicRoughness": {
        "baseColorTexture": {
          "index": 2
        },
        "metallicRoughnessTexture": {
          "index": 3
        },
        "roughnessFactor": 0.8187881097560976
      }
    },
    {
      "doubleSided": true,
      "name": "Thruster",
      "pbrMetallicRoughness": {
        "baseColorTexture": {
          "index": 5
        },
        "metallicRoughnessTexture": {
          "index": 6
        }
      }
    },
    {
      "doubleSided": true,
      "name": "Details",
      "pbrMetallicRoughness": {
        "baseColorTexture": {
          "index": 7
        },
        "metallicRoughnessTexture": {
          "index": 8
        }
      }
    },
    {
      "doubleSided": true,
      "emissiveFactor": [
        1.0,
        1.0,
        1.0
      ],
      "emissiveTexture": {
        "index": 10
      },
      "name": "Emossion",
      "pbrMetallicRoughness": {
        "baseColorTexture": {
          "index": 9
        },
        "metallicFactor": 0.0,
        "roughnessFactor": 0.8239417257
      }
    }
  ],
  "meshes": [
    {
      "name": "Cube.015_Details 2_0",
      "primitives": [
        {
          "attributes": {
            "NORMAL": 1,
            "POSITION": 0,
            "TEXCOORD_0": 2
          },
          "indices": 3,
          "material": 0,
          "mode": 4
        }
      ]
    },
    {
      "name": "Cube.015_Body_0",
      "primitives": [
        {
          "attributes": {
            "NORMAL": 5,
            "POSITION": 4,
            "TANGENT": 6,
            "TEXCOORD_0": 7
          },
          "indices": 8,
          "material": 1,
          "mode": 4
        }
      ]
    },
    {
      "name": "Cube.015_Thruster_0",
      "primitives": [
        {
          "attributes": {
            "NORMAL": 10,
            "POSITION": 9,
            "TEXCOORD_0": 11
          },
          "indices": 12,
          "material": 2,
          "mode": 4
        }
      ]
    },
    {
      "name": "Cube.015_Details_0",
      "primitives": [
        {
          "attributes": {
            "NORMAL": 14,
            "POSITION": 13,
            "TEXCOORD_0": 15
          },
          "indices": 16,
          "material": 3,
          "mode": 4
        }
      ]
    },
    {
      "name": "Cube.015_Emossion_0",
      "primitives": [
        {
          "attributes": {
            "NORMAL": 18,
            "POSITION": 17,
            "TEXCOORD_0": 19
          },
          "indices": 20,
          "material": 4,
          "mode": 4
        }
      ]
    }
  ],
  "nodes": [
    {
      "children": [
        1
      ],
      "matrix": [
        1.0,
        0.0,
        0.0,
        0.0,
        0.0,
        2.220446049250313e-16,
        -1.0,
        0.0,
        0.0,
        1.0,
        2.220446049250313e-16,
        0.0,
        0.0,
        0.0,
        0.0,
        1.0
      ],
      "name": "Sketchfab_model"
    },
    {
      "children": [
        2
      ],
      "matrix": [
        1.0,
        0.0,
        0.0,
        0.0,
        0.0,
        0.0,
        1.0,
        0.0,
        0.0,
        -1.0,
        0.0,
        0.0,
        0.0,
        0.0,
        0.0,
        1.0
      ],
      "name": "76aed4cfa75144a0b0eb5d79ff3e8ec7.fbx"
    },
    {
      "children": [
        3
      ],
      "name": "RootNode"
    },
    {
      "children": [
        4,
        5,
        6,
        7,
        8
      ],
      "matrix": [
        100.0,
        0.0,
        0.0,
        0.0,
        0.0,
        -1.629206793918314e-05,
        -99.99999999999868,
        0.0,
        0.0,
        99.99999999999868,
        -1.629206793918314e-05,
        0.0,
        0.0,
        0.0,
        0.0,
        1.0
      ],
      "name": "Cube.015"
    },
    {
      "mesh": 0,
      "name": "Cube.015_Details 2_0"
    },
    {
      "mesh": 1,
      "name": "Cube.015_Body_0"
    },
    {
      "mesh": 2,
      "name": "Cube.015_Thruster_0"
    },
    {
      "mesh": 3,
      "name": "Cube.015_Details_0"
    },
    {
      "mesh": 4,
      "name": "Cube.015_Emossion_0"
    }
  ],
  "samplers": [
    {
      "magFilter": 9729,
      "minFilter": 9987,
      "wrapS": 10497,
      "wrapT": 10497
    }
  ],
  "scene": 0,
  "scenes": [
    {
      "name": "Sketchfab_Scene",
      "nodes": [
        0
      ]
    }
  ],
  "textures": [
    {
      "sampler": 0,
      "source": 0
    },
    {
      "sampler": 0,
      "source": 1
    },
    {
      "sampler": 0,
      "source": 2
    },
    {
      "sampler": 0,
      "source": 3
    },
    {
      "sampler": 0,
      "source": 4
    },
    {
      "sampler": 0,
      "source": 5
    },
    {
      "sampler": 0,
      "source": 6
    },
    {
      "sampler": 0,
      "source": 7
    },
    {
      "sampler": 0,
      "source": 8
    },
    {
      "sampler": 0,
      "source": 9
    },
    {
      "sampler": 0,
      "source": 10
    }
  ]
}
